<svg xmlns="http://www.w3.org/2000/svg" viewBox="0 0 100 100" role="img" aria-hidden="true">
  <g fill="none" stroke="currentColor" stroke-width="4.2" stroke-linecap="round" stroke-linejoin="round" color="#12100B">
  <path d="M34.00 16.00 L34.00 16.90 L34.00 17.80 L34.00 18.70 L34.00 19.60 L34.00 20.50 L34.00 21.40 L34.00 22.30 L34.00 23.20 L34.00 24.10 L34.00 25.00 L34.00 25.90 L34.00 26.80 L34.00 27.70 L34.00 28.60 L34.00 29.50 L34.00 30.40 L34.00 31.30 L34.00 32.20 L34.00 33.10 L34.00 34.00 L34.00 34.90 L34.00 35.80 L34.00 36.70 L34.00 37.60 L34.00 38.50 L34.00 39.40 L34.00 40.30 L34.00 41.20 L34.00 42.10 L34.00 43.00 L34.00 43.90 L34.00 44.80 L34.00 45.70 L34.00 46.60 L34.00 47.50 L34.00 48.40 L34.00 49.30 L34.00 50.20 L34.00 51.10 L34.00 52.00 L34.00 52.90 L34.00 53.80 L34.00 54.70 L34.00 55.60 L34.00 56.50 L34.00 57.40 L34.00 58.30 L34.00 59.20 L34.00 60.10 L34.00 61.00 L34.00 61.90 L34.00 62.80 L34.00 63.70 L34.00 64.60 L34.00 65.50 L34.00 66.40 L34.00 67.30 L34.00 68.20 L34.00 69.10 L34.00 70.00 L34.00 70.90 L34.00 71.80 L34.00 72.70 L34.00 73.60 L34.00 74.50 L34.00 75.40 L34.00 76.30 L34.00 77.20 L34.00 78.10 L34.00 79.00 L34.00 79.90 L34.00 80.80 L34.00 81.70 L34.00 82.60 L34.00 83.50"/>
  <path d="M50.00 16.00 L50.00 16.90 L50.00 17.80 L50.00 18.70 L50.00 19.60 L50.00 20.50 L50.00 21.40 L50.00 22.30 L50.00 23.20 L50.00 24.10 L50.00 25.00 L50.00 25.90 L50.00 26.80 L50.00 27.70 L50.00 28.60 L50.00 29.50 L50.00 30.40 L50.00 31.30 L50.00 32.20 L50.00 33.10 L50.00 34.00 L50.00 34.90 L50.00 35.80 L50.00 36.70 L50.00 37.60 L50.00 38.50 L50.00 39.40 L50.00 40.30 L50.00 41.20 L50.00 42.10 L50.00 43.00 L50.00 43.90 L50.00 44.80 L50.00 45.70 L50.00 46.60 L50.00 47.50 L50.00 48.40 L50.00 49.30 L50.00 50.20 L50.00 51.10 L50.00 52.00 L50.00 52.90 L50.00 53.80 L50.00 54.70 L50.00 55.60 L50.00 56.50 L50.00 57.40 L50.00 58.30 L50.00 59.20 L50.00 60.10 L50.00 61.00 L50.00 61.90 L50.00 62.80 L50.00 63.70 L50.00 64.60 L50.00 65.50 L50.00 66.40 L50.00 67.30 L50.00 68.20 L50.00 69.10 L50.00 70.00 L50.00 70.90 L50.00 71.80 L50.00 72.70 L50.00 73.60 L50.00 74.50 L50.00 75.40 L50.00 76.30 L50.00 77.20 L50.00 78.10 L50.00 79.00 L50.00 79.90 L50.00 80.80 L50.00 81.70 L50.00 82.60 L50.00 83.50"/>
  <path d="M66.00 16.00 L66.00 16.90 L66.00 17.80 L66.00 18.70 L66.00 19.60 L66.00 20.50 L66.00 21.40 L66.00 22.30 L66.00 23.20 L66.00 24.10 L66.00 25.00 L66.00 25.90 L66.00 26.80 L66.00 27.70 L66.00 28.60 L66.00 29.50 L66.00 30.40 L66.00 31.30 L66.00 32.20 L66.00 33.10 L66.00 34.00 L66.00 34.90 L66.00 35.80 L66.00 36.70 L66.00 37.60 L66.00 38.50 L66.00 39.40 L66.00 40.30 L66.00 41.20 L66.00 42.10 L66.00 43.00 L66.00 43.90 L66.00 44.80 L66.00 45.70 L66.00 46.60 L66.00 47.50 L66.00 48.40 L66.00 49.30 L66.00 50.20 L66.00 51.10 L66.00 52.00 L66.00 52.90 L66.00 53.80 L66.00 54.70 L66.00 55.60 L66.00 56.50 L66.00 57.40 L66.00 58.30 L66.00 59.20 L66.00 60.10 L66.00 61.00 L66.00 61.90 L66.00 62.80 L66.00 63.70 L66.00 64.60 L66.00 65.50 L66.00 66.40 L66.00 67.30 L66.00 68.20 L66.00 69.10 L66.00 70.00 L66.00 70.90 L66.00 71.80 L66.00 72.70 L66.00 73.60 L66.00 74.50 L66.00 75.40 L66.00 76.30 L66.00 77.20 L66.00 78.10 L66.00 79.00 L66.00 79.90 L66.00 80.80 L66.00 81.70 L66.00 82.60 L66.00 83.50"/>
  </g>
</svg>
